<svg viewBox="0 0 1080 1080" xmlns="http://www.w3.org/2000/svg">
  <polyline points="756,1030 760,145 665,473 647,424 573,347 633,421 539,171 279,196 181,409 241,326 117,515 130,378 235,861 373,843 238,626 336,868 328,773 167,608 259,645 187,311 224,563 114,583 181,317 317,204 108,514 325,635 265,889 499,900 137,737 270,809 201,373 214,594 164,400 413,179 437,248 649,335 755,168 901,288 855,245 803,740 821,700 910,701 749,880 722,923 910,384 976,635 935,509 974,451 878,369 709,184 245,212 378,147 578,317 607,473 818,196 791,191 767,160 431,139 490,416 706,350 398,462 115,604 133,523 327,851 322,920 292,579 314,671 187,609 163,605 234,559 624,354 661,332 471,415 545,453 522,247 604,383 390,463 249,499 353,509 204,479 214,601 275,477 170,547 214,699 178,761 285,491 102,525 933,356 599,315 640,256 619,285 526,234 573,181 628,176 871,417 847,795 886,589 756,851 852,760 766,566 841,577 859,790 875,745 887,825 900,465 944,519 935,331 820,235 859,579 855,388 864,595 745,901 893,772 698,958 280,879 240,703 192,734 334,881 348,922 747,895 810,682 864,527 963,590 933,720 735,573 903,699 771,849 966,522 906,434 452,442 727,437 692,455 576,114 616,173 578,128 619,233 579,260 767,441 641,297 571,130 690,331 499,208 709,274 805,380 556,137 679,236 979,542 828,413 814,289 908,555 880,526 471,144 488,116 560,320 593,302 692,357 816,570 756,716 779,858 765,727 764,557 792,757 974,527 788,788 774,790 802,746 813,847 841,815 855,391 323,155 552,382 531,107 808,377 753,379 746,244 922,395 865,241 783,242 805,317 196,530 232,780 480,774 333,826 197,769 334,517 309,518 269,492 789,383 773,336 685,266 601,228 830,241 498,434 536,462 516,345 900,538 794,542 904,531 793,220 372,243 777,345 896,356 835,353 759,719 888,434 589,433 603,444 700,404 563,470 690,334 624,267 608,180 686,479 716,276 574,405 526,385 508,458 498,394 499,382 514,470 680,141 722,264 473,255 409,160 383,198 499,343 463,399 674,377 695,245 511,99 653,254 670,260 801,355 528,242 531,209 714,137 960,383 923,451 724,297 702,201 904,652 877,582 889,603 898,453 831,405 851,428 960,397 733,325 641,216 423,110 759,322 586,156 554,202 726,438 480,265 671,455 372,136 385,121 346,201 644,374 618,123 425,280 425,251 482,238 420,149 155,316 340,271 413,112 383,126 395,124 458,262 396,153 359,148 443,123 595,161 524,274 568,163 530,380 683,323 727,162 737,143 657,111 477,365 784,294 501,357 912,321 850,546 768,300 799,368 798,381 453,346 609,355 607,427 635,337 734,369 415,258 849,400 848,420 832,608 973,430 934,533 788,667 783,527 744,802 464,714 636,740 726,900 709,729 726,933 628,663 420,799 263,858 519,917 564,977 399,946 651,942 722,777 649,923 775,802 778,689 816,513 846,480 904,452 486,469 766,390 703,368 709,411 428,255 448,155 287,340 274,253 389,239 306,229 887,274 918,303 940,381 981,458 944,751 875,235 672,188 675,132 746,230 640,126 441,126 135,432 141,537 370,807 630,669 431,783 493,678 471,729 456,740 328,920 144,750 195,711 333,508 332,551 348,880 345,600 79,455 523,171 394,240 355,170 450,175 826,210 838,305 751,720 813,517 788,698 784,678 802,690 950,469 903,503 374,830 510,745 521,740 437,735 584,785 868,756 811,717 620,979 357,842 246,437 226,478 126,713 127,694 218,769 136,682 208,687 316,739 344,792 232,500 279,741 97,521 121,385 132,682 110,669 159,656 752,828 741,822 623,941 681,901 620,906 154,808 960,662 934,444 893,343 973,478 969,515 929,761 555,788 636,719 472,674 879,877 104,493 129,449 441,197 425,167 480,189 163,307 162,414 461,166 495,191 238,288 226,216 440,144 113,482 143,523 248,515 272,658 301,767 280,695 351,595 305,769 343,729 194,828 111,604 306,579 98,435 582,141 464,148 810,192 760,198 579,92 378,151 358,160 353,222 365,192 307,172 768,497 881,677 856,621 926,312 988,563 852,722 792,544 753,551 835,850 900,777 819,890 503,925 289,708 289,521 312,610 264,624 343,738 124,570 94,554 361,873 371,843 369,938 616,904 480,863 154,591 160,434 116,473 177,677 121,378 112,411 149,347 134,380 120,651 133,653 133,650 165,665 453,980 465,917 399,841 104,623 230,765 217,756 236,646 194,634 229,402 314,874 659,969 805,753 892,765 981,633 792,214 615,227 377,217 204,383 371,954 412,786 465,805 211,753 371,945 410,965 493,959 407,895 526,885 531,965 464,889 584,918 619,167 371,166 363,159 883,587 973,491 960,596 727,888 575,714 906,710 875,620 993,555 875,829 520,749 673,653 237,856 523,923 166,822 675,735 652,750 686,845 710,809 779,700 600,976 638,971 303,884 302,571 373,834 579,662 471,778 493,659 511,830 515,787 705,769 459,786 657,714 167,889 608,696 727,832 638,933 802,883 435,966 400,949 690,957 771,918 915,596 870,504 846,296 769,299 761,237 785,247 852,596 832,554 793,676 757,744 980,519 676,961 740,909 900,340 697,424 932,350 967,627 765,886 496,936 613,904 441,959 536,921 594,853 962,599 781,924 877,507 921,633 897,627 984,466 881,331 651,147 887,810 568,949 368,913 328,869 249,754 127,724 226,488 184,495 131,416 280,217 101,461 114,394 333,704 131,435 530,176 218,379 420,239 563,100 759,152 866,268 587,304 492,310 488,136 537,196 542,127 473,193 538,90 202,291 316,225 383,209 775,237 811,263 670,157 300,205 96,582 158,398 148,550 98,563 764,347 470,146 572,130 691,128 802,187 308,226 538,159 851,282 973,492 824,887 644,941 592,958 346,932 509,705 558,703 580,770 714,810 769,816 933,707 951,529 692,966 491,958 534,876 482,948 266,880 312,631 279,637 281,840 735,943 822,207 756,452 752,142 919,303 932,515 923,699 738,926 873,835 833,835 770,859 894,784 691,965 373,901 867,854 404,962 349,827 189,513 179,693 395,944 483,984 667,968 585,880 320,889 184,276 150,369 551,125 703,121 934,439 735,196 959,466 720,152 463,96 305,256 236,223 269,220 345,140 291,172 281,336 236,191 978,479 911,308 900,616 871,521 884,564 456,770 253,879 648,876 959,638 789,623 863,241 833,666 863,676 898,740 934,696 937,639 907,736 676,975 878,419 771,778 508,806 849,204 859,443 532,459 447,287 526,317 338,215 228,225 331,205 232,354 170,676 169,572 159,696 346,491 328,489 351,495 329,928 155,397 330,172 798,431 735,809 547,767 491,690 671,691 423,684 736,822 878,455 930,700 767,843 764,867 745,911 741,921 599,946 642,912 547,962 552,902 570,903 416,872 382,810 370,810 211,539 236,602 184,688 149,689 312,804 274,839 233,839 301,911 473,784 975,598 982,467 931,687 926,506 971,464 920,367 781,256 847,481 895,564 876,506 802,866 778,237 845,378 499,415 458,186 615,104 711,149 868,517 700,120 675,112 848,349 802,195 833,255 543,186 604,361 929,712 907,494 899,554 799,554 825,607 715,487 929,770 865,694 864,279 628,111 607,115 835,259 826,315 795,175 779,162 848,548 861,706 863,630 706,331 782,454 635,217 532,315 670,399 529,398 516,267 582,165 227,324 115,514 221,483 338,533 219,582 170,534 333,714 311,515 292,519 327,726 224,857 119,700 154,399 437,218 611,287 755,274 632,272 884,279 878,307 906,290 524,466 758,407 457,357 519,247 512,270 606,350 207,572 140,516 311,505 352,594 351,502 320,601 320,705 317,814 174,745 270,771 96,566 221,828 99,461 164,784 156,539 328,528 121,417 233,639 194,789 269,539 173,270 173,758 268,858 160,516 203,292 306,160 323,151 311,202 228,307 289,344 369,209 121,418 396,149 530,130 523,380 385,217 190,365 170,761 390,880 457,789 405,836 217,435 150,626 240,800 155,696 186,286 302,665 353,649 102,685 337,547 128,659 106,526 181,631 204,820 201,597 339,546 257,546 325,481 196,594 354,628 849,775 494,664 453,714 511,647 493,719 517,768 753,829 687,827 776,677 776,435 589,142 178,284 223,221 98,628 179,636 103,515 282,176 145,362 131,379 604,194 569,333 590,230 720,359 505,461 723,446 725,367 728,271 601,331 525,373 598,290 394,133 340,324 254,355 549,168 689,118 552,103 585,126 698,270 779,286 687,261 363,137 179,331 171,806 250,564 112,658 232,834 93,467 247,428 242,773 205,656 195,756 278,723 252,774 186,816 93,512 164,338 480,986 152,721 223,558 225,789 218,529 349,465 343,580 285,590 354,716 162,312 258,867 214,758 295,914 241,877 142,634 171,285 94,516 216,838 214,849 401,957 472,684 841,654 914,781 447,664 590,831 678,673 263,825 210,449 175,465 135,414 232,481 200,311 261,695 268,527 944,222 157,584 244,581 102,635 145,618 236,859 193,755 119,625 195,808 339,619 202,371 251,585 321,675 358,695 169,370 160,646 440,868 152,686 330,876 317,518 164,681 119,585 250,887 209,780 245,624 242,545 193,786 149,650 185,259 286,603 191,482 285,563 198,640 249,531 635,378 432,271 581,441 730,462 577,442 517,329 732,243 760,290 489,215 447,350 616,410 302,482 320,587 314,588 361,485 295,706 214,763 319,515 319,863 291,869 150,386 418,847 434,884 227,654 104,569 151,630 344,599 215,403 235,494 213,684 111,558 152,735 286,724 205,678 310,876 427,841 111,613 238,717 262,721 321,559 256,558 119,455 225,312 214,224 306,191 370,120 704,168 565,162 275,350 368,286 258,319 180,284 398,178 508,118 488,141 645,105 777,208 798,335 805,844 431,728 581,670 585,870 434,892 438,709 567,657 504,733 612,775 476,716 847,819 834,751 913,544 862,836 600,982 569,928 632,589 625,800 484,702 682,773 598,781 822,855 766,829 865,549 767,716 801,421 519,455 451,361 524,132 871,236 940,510 851,216 918,336 875,529 811,464 890,622 898,281 809,545 870,369 519,95 380,174 870,395 472,442 966,480 984,491 827,361 957,375 913,585 910,435 886,274 886,846 390,718 758,815 865,281 827,428 734,603 906,327 858,662 779,574 712,400 708,434 504,467 514,443 463,174 806,200 640,137 492,96 424,123 502,137 635,109 593,95 561,92 538,148 900,270 771,196 757,657 892,620 878,754 900,277 905,507 907,777 940,744 925,436 818,887 687,829 623,968 713,757 710,935 770,925 889,717 956,694 977,627 650,895 892,518 873,800 842,819 897,734 886,551 889,811 802,901 660,966 977,487 620,270 735,134 470,170 491,405 426,289 507,362 660,475 647,456 908,451 836,241 844,445 700,306 910,509 820,177 514,397 694,170 598,114 591,128 855,333 933,392 904,373 924,555 931,522 940,515 803,692 770,805 895,405 495,467 454,351 503,283 540,246 508,435 736,392 522,208 512,141 214,247 537,104 787,232 520,97 765,219 766,826 739,884 756,749 797,735 825,426 756,348 623,380 657,435 666,126 678,214 653,109 805,370 708,343 739,402 370,223 764,258 763,403 950,643 808,553 801,456 750,600 907,792 740,926 598,709 545,756 525,658 543,667 449,694 964,790 501,215 740,209 778,432 908,383 977,463 982,608 961,685 813,697 779,456 910,624 802,393 450,239 485,450 431,132 627,103 605,149 728,352 716,163 688,118 722,273 895,657 888,825 689,890 623,641 564,962 760,869 841,586 990,554 888,251 876,408 956,698 724,940 868,852 960,494 851,675 888,806 978,599 864,595 947,574 814,179 443,115 585,128 782,265 394,212 476,357 472,306 424,221 367,131 336,208 925,439 555,470 798,402 644,247 828,431 658,157 723,179 583,100 260,184 108,431 145,340 520,92 521,150 583,136 882,280 741,173 801,190 598,172 578,217 496,185 761,183 583,424 154,504 377,887 663,937 351,843 587,712 769,926 372,883 376,941 358,851 543,640 336,929 675,962 602,957 288,781 585,960 702,960 477,942 600,887 571,635 688,874 734,751 413,801 328,797 786,804 715,124 818,229 793,224 910,284 923,336 975,619 768,936 628,655 667,723 675,828 697,784 515,923 881,791 693,750 578,712 445,713 568,660 474,658 425,835 436,752 568,797 663,778 443,671 836,829 804,705 687,864 568,978 526,957 394,829 287,705 347,490 262,897 469,966 108,662 350,908 413,900 517,958 638,975 458,680 555,726 230,735 326,933 247,860 567,889 592,864 510,962 649,929 850,739 922,755 232,816 278,816 666,654 516,677 508,833 682,521 626,346 728,387 637,440 529,394 726,461 674,408 854,648 851,650 699,898 672,735 197,662 316,786 352,931 406,863 552,894 296,898 230,549 224,514 343,755 355,794 534,944 509,959 531,976 538,947 611,956 436,880 743,926 649,940 694,785 696,757 612,703 532,678 636,678 822,885 627,717 429,793 371,908 546,923 319,849 670,690 376,907 444,905 626,950 606,943 613,945 393,112 155,330 308,574 250,701 256,756 446,886 422,892 280,744 267,855 387,951 467,707 446,723 809,795 735,924 287,877 568,728 323,861 488,961 547,955 337,815 673,784 595,248 874,362 792,253 825,609 814,788 798,809 636,766 626,646 578,907 429,924 110,348 414,115 396,176 662,129 719,149 860,217 974,536 929,660 482,772 601,674 398,851 415,794 379,891 374,912 690,910 262,925 759,919 915,756 526,970 606,987 343,806 322,506 350,654 330,545 312,479 365,887 521,668 818,665 813,854 719,873 709,833 644,703 396,717 547,680 593,868 607,924 223,799 381,798 724,779 781,772 598,985 684,952 742,874 353,872 606,996 348,859 514,750 496,973 619,642 521,801 508,685 276,900 248,858 742,627 823,424 511,404 564,93 367,200 197,380 287,345 253,275 206,276 175,751 210,429 317,949 820,892 825,273 745,898 575,744 651,696 609,749 671,715 607,808 596,726 658,694 628,714 819,883 631,964 422,871 236,692 283,589 249,879 313,517 284,779 487,780 191,801 945,713 878,779 627,926 792,822 246,755 464,795 470,785 478,804 224,792 372,824 391,810 376,853 604,921 639,924 948,705 951,351 992,547 949,370 948,411 949,682 915,764 896,777 980,607 966,392 915,414 970,407 955,526 776,370 547,308 631,137 475,427 758,208 681,222 474,324 711,303 661,263 316,261 254,243 354,163 309,213 297,301 281,228 237,319 273,298 165,468 123,423 107,440 157,467 342,113 717,381 485,247 444,252 437,257 586,432 659,426 684,355 508,129 295,162 493,115 825,599 751,645 757,657 786,316 894,364 857,512 983,584 938,349 629,195 829,257 193,253 300,260 219,308 448,238 487,429 445,82 503,422 509,339 693,358 463,251 452,250 691,270 464,339 695,295 531,330 587,456 583,98 702,164 447,226 530,394 623,289 677,388 661,355 486,398 512,234 698,451 703,434 796,300 853,376 804,287 918,337 557,280 655,161 446,310 498,260 529,260 606,294 294,168 337,174 322,165 514,95 491,117 343,172 340,177 671,241 649,192 169,322 579,153 445,147 177,277 317,284 171,305 255,190 207,384 337,230 386,144 377,149 341,146 564,118 638,345 421,232 329,329 696,170 585,97 439,113 199,270 637,263 703,127 823,217 636,483 755,449 426,449 129,518 347,191 259,344 517,73 91,525 166,504 394,466 597,361 561,194 857,239 735,171 704,300 343,145 467,99 579,135 581,91 480,193 487,398 505,334 476,288 579,267 654,244 504,162 644,259 438,310 639,467 448,342 711,216 605,260 635,217 658,208 486,381 535,303 549,453 423,277 489,468 424,263 509,398 619,225 415,196 806,173 451,262 816,692 598,97 859,224 414,206 119,468 117,365 354,284 518,97 291,305 366,316 140,323 404,186 615,116 526,94 276,173 340,319 379,254 157,314 123,689 191,425 147,503 112,656 118,684 199,811 183,775 420,973 269,806 260,889 205,444 180,783 358,758 175,370 378,253 273,223 369,317 441,123 506,473 667,455 597,458 573,458 796,475 968,510 926,420 933,351 951,652 968,382 248,486 132,491 109,423 113,461 138,539 213,462 210,464 118,502 250,207 265,222 831,266 587,267 676,257 589,441 461,339 544,192 537,200 590,196 716,219 550,284 575,251 470,212 540,367 667,273 620,331 566,327 571,74 655,316 389,249 263,337 611,99 570,463 634,416 529,371 575,248 574,450 861,484 966,433 930,340 943,387 826,274 738,462 593,435 917,451 775,854 136,581 896,285 956,537 743,303 725,584 876,369 324,484 259,558 282,649 314,662 89,561 605,411 706,442 942,436 826,701 750,510 991,490 823,284 838,860 659,892 847,863 965,691 984,593 917,550 817,174 876,474 923,508 747,420 735,539 836,545 595,162 872,520 861,307 922,293 762,551 532,259 863,719 837,875 762,633 915,806 906,289 973,547 855,752 966,541 827,759 852,873 899,409 833,481 829,560 687,701 817,285 738,713 837,738 853,344 805,297 404,477 284,472 239,485 122,691 658,655 221,681 217,675 172,613 164,485 371,763 319,522 330,729 499,978 641,978 425,917 482,974 962,584 926,730 887,825 768,567 792,739 678,225 912,773 699,576 796,748 994,548 770,723 789,695 885,789 788,906 972,501 893,736 963,612 947,656 913,280 698,113 879,532 798,290 768,306 911,322 950,619 991,588 902,354 165,526 183,668 345,607 213,681 200,615 277,877 200,808 243,867 231,682 348,686 352,934 556,871 332,932 377,921 612,942 915,667 740,473 723,135 783,467 982,460 727,179 735,194 769,825 788,499 733,201 795,619 783,514 745,556 725,387 618,396 251,517 341,455 120,614 171,790 421,968 570,967 826,899 944,543 872,773 833,781 569,800 888,336 904,773 888,307 866,542 932,365 637,107 541,120 572,139 574,90 675,176 815,741 982,583 945,434 831,205 988,486 926,642 771,269 806,182 809,189 752,741 777,389 649,481 530,325 708,451 838,509 811,451 847,775 546,804 545,708 521,811 872,534 773,525 993,557 754,390 721,181 744,479 749,134 871,867 288,901 214,800 303,905 363,929 232,825 193,650 297,650 679,671 259,711 246,607 268,845 205,233 225,439 518,1031 640,672 502,821 544,944 399,937 272,907 311,821 214,837 416,951 342,895 336,475 343,819 341,901 345,422 356,790 242,611 268,624 327,625 165,307 173,377 350,595 155,492 215,616 170,642 954,689 883,752 642,970 758,773 901,614 457,282 533,388 837,217 837,246 981,488 806,238 709,361 653,309 869,666 939,674 884,493 443,436 770,368 812,359 534,426 752,337 177,568 198,361 242,329 119,420 200,260 444,90 347,181 342,185 373,322 209,344 311,767 320,549 192,393 625,106 916,286 737,322 756,261 515,153 732,144 686,127 855,214 877,502 775,817 608,759 824,734 745,148 786,164 937,339 920,313 914,303 706,233 657,235 730,298 532,347 757,780 764,709 614,283 666,849 687,849 629,840 464,659 557,711 279,729 194,259 126,489 134,513 147,610 355,774 91,432 152,702 191,819 242,629 230,756 489,738 559,662 671,695 609,680 775,738 583,681 738,716 598,772 622,693 619,782 245,769 242,839 264,582 334,686 701,865 780,859 302,663 217,653 109,483 144,388 142,336 399,273 231,355 365,179 524,249 502,311 540,76 711,581 519,781 788,742 792,799 769,704 826,538 812,535 782,748 841,462 819,335 545,460 912,469 936,680 952,676 896,793 978,539 824,508 543,175 341,160 352,197 345,239 137,374 306,175 187,380 249,199 357,343 371,207 344,274 495,112 156,285 103,548 151,677 529,988 825,776 187,577 324,720 250,686 267,659 359,618 292,788 401,906 743,868 601,708 929,759 682,974 516,867 723,959 162,707 525,729 574,679 819,883 429,996 176,798 117,580 167,570 298,649 312,460 305,507 290,811 357,530 220,646 115,495 344,162 701,144 257,317 223,259 642,93 624,230 885,267 698,239 853,276 510,454 521,471 493,216 566,350 516,344 490,425 556,132 284,242 232,240 361,149 240,210 130,416 103,571 392,471 277,476 986,409 696,106 634,777 496,772 893,780 444,311 466,239 437,98 132,375 164,799 164,722 147,699 140,581 210,236 322,234 498,218 155,368 270,296 177,373 333,187 550,168 594,174 219,375 373,301 152,413 584,132 696,436 771,880 606,967 269,892 225,564 193,255 339,160 344,138 570,518 563,227 669,417 377,205 642,450 452,169 567,420 830,615 787,700 645,914 632,931 732,939 784,901 971,411 627,271 687,297 761,296 468,340 786,431 695,904 688,362 653,290 696,585 501,830 597,617 730,854 701,932 724,841 550,738 431,674 717,801 421,681 901,636 906,521 850,656 514,785 714,762 691,832 800,917 944,718 460,374 833,355 610,132 267,199 395,186 220,346 228,759 242,878 613,992 776,691 849,261 282,222 243,274 335,272 205,346 419,100 135,436 91,535 215,435 120,499 337,793 202,824 129,662 561,786 321,906 461,696 478,760 848,747 565,674 519,715 523,646 513,724 313,819 380,945 448,678 404,862 444,979 720,954 663,797 728,929 756,931 697,904 438,896 573,885 531,987 553,876 590,880 596,533 714,942 459,926 73,525 410,214 387,186 340,229 285,304 519,224 701,174 774,327 982,464 803,767 808,828 738,899 750,914 653,957 722,863 763,772 829,319 841,579 767,932 315,933 399,947 295,867 664,965 651,304 102,656 120,522 122,705 202,467 122,369 350,562 341,954 565,932 397,682 721,901 965,695 748,440 660,466 506,464 769,464 562,317 757,481 739,266 657,313 154,615 192,367 518,137 700,179 586,165 822,369 778,652 767,764 699,858 938,743 973,527 728,564 697,127 387,108 565,123 822,349 563,105 314,145 209,277 221,785 212,679 549,657 223,865 305,532 305,447 276,558 663,278 873,367 849,696 832,628 887,453 868,411 807,497 808,887 911,431 974,551 944,502 738,289 726,452 481,246 916,644 522,439 874,642 809,664 907,780 748,938 652,974 885,826 793,905 957,699 935,673 814,729 759,924 604,954 680,947 690,888 659,817 368,134 552,117 369,140 452,347 615,379 459,272 602,278 637,282 447,130 988,596 811,520 917,614 908,391 823,552 869,552 916,314 726,131 872,241 966,376 812,797 897,769 822,772 776,919 804,806 905,719 966,401 875,239 609,139 538,103 291,168 189,376 152,369 174,369 99,542 363,583 94,544 132,752 101,570 117,555 306,556 307,532 244,632 361,496 843,241 427,181 475,414 495,406 511,266 522,458 520,257 691,119 454,164 573,88 327,280 606,174 926,341 894,545 768,576 742,785 414,642 618,742 693,774 784,918 942,614 932,675 932,506 960,676 875,721 772,562 865,716 839,695 943,335 889,453 661,143 567,95 699,112 232,268 142,394 116,393 107,603 113,406 164,372 141,761 139,638 146,770 109,621 155,481 422,124 677,414 640,110 438,206 515,576 578,121 759,166 623,197 736,124 536,164 710,129 480,168 665,115 505,131 503,121 370,306 345,263 673,109 663,173 638,233 436,161 637,222 773,188 763,215 639,125 583,157 756,182 754,232 864,228 942,332 718,122 506,111 722,141 443,123 520,110 625,133 425,169 80,484 269,647 189,230 902,308 921,383 925,736 973,589 950,466 966,616 844,668 836,759 908,640 895,609 474,441 644,274 707,248 802,178 964,398 819,887 931,673 441,728 490,749 351,818 521,754 288,914 250,809 153,659 201,597 336,851 240,807 725,800 331,807 243,836 223,798 131,565 182,499 163,551 104,480 383,869 398,803 205,842 98,612 263,914 205,746 198,404 146,473 98,651 260,885 273,696 469,758 382,811 482,852 297,816 107,417 334,515 97,604 141,701 129,484 1029,455 419,743 674,611 775,672 698,626 718,494 570,374 853,307 887,254 686,152 818,197 737,250 692,435 547,321 459,316 651,449 522,397 491,421 454,326 699,346 712,258 815,276 749,144 712,172 501,260 665,184 693,192 565,167 849,208 863,373 655,438 725,495 659,882 883,701 837,469 738,569 454,984 279,598 239,871 339,893 137,720 137,634 299,915 458,975 352,827 389,888 435,967 171,773 428,975 506,953 535,949 427,987 699,941 504,876 599,869 554,710 680,573 727,450 466,229 587,227 357,234 424,112 259,202 774,410 509,833 531,918 229,870 148,743 443,983 423,756 435,917 639,871 623,876 313,948 785,260 745,759 797,515 920,400 341,832 289,441 123,470 275,872 629,876 689,287 672,675 385,708 518,657 318,943 499,652 809,702 102,611 241,770 187,374 354,613 150,405 103,467 108,612 394,959 212,839 356,933 118,438 113,429 413,644 813,781 776,847 588,881 593,808 395,958 521,942 524,979 369,827 214,851 612,886 219,866 101,442 198,791 159,712 240,711 352,915 436,971 561,817 570,973 458,930 255,872 197,737 351,853 258,780 325,543 286,614 353,681 214,752 276,733 79,523 338,592 344,531 247,578 370,972 174,551 552,427 800,393 748,382 911,412 578,297 636,223 424,106 474,448 851,544 843,221 866,427 904,387 516,810 606,737 477,745 293,884 289,764 963,557 789,845 292,823 402,940 297,923 261,854 328,942 454,952 209,821 128,718 143,539 336,455 336,739 620,664 370,696 219,850 472,969 409,976 225,853 204,659 174,811 184,321 132,590 881,765 558,996 371,850 111,656 187,510 184,426 165,750 527,1008 149,519 238,434 216,456 167,419 122,395 137,344 211,271 349,317 321,890 544,953 454,965 245,877 118,683 187,803 211,373 249,445 206,420 267,278 295,148 791,708 447,336 480,235 453,219 723,668 673,540 660,749 720,904 720,880 795,795 657,865 773,786 827,567 774,789 858,810 808,775 771,911 814,731 819,518 392,851 649,958 519,936 674,975 960,691 955,482 886,438 776,744 844,849 764,504 493,300 756,409 495,475 492,469 390,92 286,239 777,150 637,103 863,248 849,486 788,623 774,755 751,763 751,735 351,733 274,811 329,450 284,721 154,719 837,824 812,812 519,285 524,186 736,314 676,627 723,248 796,202 824,233 789,494 790,173 826,422 847,530 982,585 960,521 877,613 723,644 960,610 832,314 895,562 534,935 536,698 456,808 400,821 646,730 453,764 910,778 838,728 837,829 886,711 367,769 486,723 349,751 928,679 924,764 922,770 718,948 855,845 717,805 755,776 757,275 878,372 905,409 695,195 622,282 717,304 568,224 505,234 865,727 810,814 875,825 537,1008 894,778 390,767 397,742 280,787 158,697 554,927 656,930 534,911 550,887 722,976 836,460 835,353 889,366 907,496 772,551 657,866 733,718 910,734 563,724 412,721 387,779 328,480 705,467 694,619 917,409 983,621 933,375 903,308 792,313 652,766 347,784 352,484 319,649 308,547 280,647 308,466 333,533 402,956 488,905 718,910 923,736 916,719 838,823 722,871 737,604 839,659 659,557 544,300 450,308 753,280 863,256 771,151 770,604 778,535 630,319 557,164 611,191 603,194 986,581 932,513 901,412 784,287 866,369 651,149 755,677 313,655 491,663 656,691 636,662 701,888 850,840 888,761 984,641 822,731 792,731 680,532 710,585 588,725 572,698 506,830 496,600 514,927 947,620 965,571 810,892 682,920 828,754 977,635 802,786 732,898 740,881 897,825 912,439 440,712 483,596 732,888 866,827 665,942 785,899 662,810 661,948 662,937 588,905 464,957 673,917 475,957 750,751 781,930 491,996 715,958 469,910 516,991 829,852 929,729 857,656 901,317 886,274 757,197 789,221 596,96 960,453 667,163 804,895 729,119 837,355 810,201 749,142 189,241 313,271 309,286 498,108 431,299 523,448 890,394 876,414 812,189 860,330 972,680 946,323 313,161 86,584 166,317 144,440 366,160 192,267 481,242 826,358 853,541 685,976 464,990 475,932 792,902 734,920 543,639 612,676 713,834 800,678 861,404 891,375 747,296 411,164 214,327 270,181 377,124 129,508 210,230 245,220 320,157 357,232 270,356 604,86 937,324 892,827 490,346 462,282 399,166 408,189 332,324 465,169 632,554 598,554 492,303 671,598 604,138 378,970 649,961 650,961 377,943 762,933 562,783 749,936 715,774 603,728 579,835 686,680 579,442 710,502 555,390 154,570 358,444 924,521 685,962 697,784 699,742 419,698 624,800 130,700 320,688 337,720 244,601 421,931 407,970 99,495 144,318 310,324 157,337 102,502 373,699 191,347 357,255 788,478 469,367 666,360 386,480 692,328 440,132 846,304 809,261 620,179 636,133 644,557 411,227 228,352 175,315 223,315 465,99 215,328 174,699 641,693 428,720 977,418 912,452 962,428 919,720 848,655 783,604 454,296 444,276 622,525 492,321 502,105 554,123 584,99 319,184 576,135 915,306 980,465 850,482 792,639 813,511 795,589 793,548 758,713 938,689 959,705 622,509 512,280 647,529 396,875 479,827 97,637 600,360 393,474 126,563 789,302 854,446 869,421 341,232 345,325 543,95 577,390 674,423 634,397 682,311 651,640 394,758 401,779 113,413 89,528 111,533 913,345 873,360 862,244 560,217 727,230 254,191 164,305 345,151 172,312 342,291 490,163 446,164 290,341 327,274 149,336 397,280 148,278 810,226 426,147 389,137 298,265 386,288 146,352 134,374 98,458 245,604 339,535 301,916 169,632 199,618 306,558 359,522 95,400 373,318 217,226 488,132 507,228 630,272 175,265 173,337 108,450 105,492 127,360 347,304 342,329 152,279 324,799 292,604 373,460 274,504 176,360 88,502 354,638 260,644 339,733 295,481 199,485 222,457 283,498 125,542 170,604 867,200 872,692 862,624 838,411 911,537 925,494 895,481 761,858 507,257 493,331 639,109 763,227 761,303 290,502 324,467 256,489 365,639 303,435 300,554 244,483 698,381 557,204 559,382 729,166 617,309 664,147 133,427 289,643 358,869 157,475 271,539 198,800 276,901 101,614 153,338 323,340 178,309 332,183 272,174 290,221 187,296 183,417 309,289 568,136 506,137 475,171 703,210 612,179 713,143 779,284 292,509 290,578 162,440 207,507 301,624 204,482 142,511 156,456 98,649 344,453 299,736 158,676 204,412 451,717 149,490 451,98 352,181 496,128 303,173 810,454 975,612 893,829 578,344 393,115 272,167 563,80 500,120 668,150 702,196 655,129 671,114 794,201 812,456 803,440 670,384 746,354 890,324 668,316 722,310 700,894 731,351 710,706 476,899 394,822 497,771 465,803 397,727 468,980 635,956 330,861 185,676 475,802 468,632 621,756 736,290 656,238 701,291 807,279 667,757 759,763 693,838 811,656 819,444 683,426 708,414 717,318 700,206 595,209 498,92 418,116 597,134 635,108 707,948 646,955 491,872 670,975 837,883 862,526 879,571 763,605 457,732 544,751 725,718 774,162 703,148 732,132 956,407 741,151 713,133 967,372 788,162 850,418 793,197 718,221 630,880 430,933 273,710 212,813 290,758 491,807 469,776 883,745 861,598 840,566 946,589 927,798 538,800 603,751 891,340 919,346 958,407 936,546 945,768 961,593 748,579 377,718 805,724 988,614 876,833 698,956 706,448 733,351 684,451 651,505 615,278 475,184 847,762 855,744 877,728 825,826 420,252 775,783 628,167 648,114 851,541 637,982 235,868 839,659 834,176 665,119 735,238 696,725 844,433 429,212 510,460 457,293 436,297 642,827 385,740 923,366 933,436 959,384 969,638 967,405 956,419 588,257 385,120 175,271 94,625 370,125 337,145 294,160 203,272 206,254 330,241 284,237 246,293 167,777 225,788 441,771 484,651 880,779 468,287 493,523 572,793 790,800 693,230 947,678 851,696 841,540 860,757 841,572 989,619 962,540 932,541 934,750 739,867 763,821 719,955 723,202 706,271 898,267 944,624 927,689 983,520 971,611 948,689 925,750 998,607 869,649 666,525 912,578 841,572 304,800 596,754 624,795 474,396 481,308 642,269 740,448 745,369 376,742 473,805 646,802 683,378 669,645 709,121 203,240 430,103 619,186 751,451 672,105 936,367 556,438 595,429 498,448 528,514 423,758 834,769 815,545 941,752 928,451 965,651 947,713 846,889 545,987 616,920 381,894 294,832 168,790 701,955 858,860 449,352 540,459 500,421 666,495 900,594 897,590 211,780 582,643 417,271 563,278 558,261 617,335 480,994 594,959 481,984 290,907 268,827 201,378 542,209 574,297 624,363 684,159 245,368 594,125 837,194 601,338 827,393 866,713 887,329 646,225 972,627 953,375 980,666 382,673 206,606 148,654 122,569 420,816 243,471 217,436 155,385 83,548 431,957 495,983 566,804 567,679 656,711 436,751 162,703 231,753 179,570 642,997 158,601 157,622 274,696 709,511 580,163 509,229 791,345 962,473 967,457 652,289 540,241 862,379 784,174 826,190 880,340 984,448 134,475 98,481 213,670 184,760 113,647 104,447 113,702 172,405 155,773 123,534 222,654 676,1001 638,161 704,634 436,701 617,659 206,817 226,208 310,279 631,231 482,423 360,472 219,574 483,920 309,818 320,641 229,616 241,710 180,212 384,960 462,958 665,965 700,952 891,702 946,396 910,394 886,690 924,775 985,618 969,395 793,165 725,148 398,119 589,103 732,129 922,655 883,669 946,351 936,465 853,746 845,870 580,909 476,872 428,922 171,740 306,734 657,960 97,586 215,618 274,693 120,581 328,746 557,675 518,672 291,657 278,643 420,786 370,810 116,431 166,302 103,427 177,346 306,593 307,868 774,920 608,940 418,936 241,809 187,622 357,522 123,423 194,363 315,547 295,750 203,621 232,540 320,504 268,770 310,846 273,887 287,763 112,521 412,858 447,731 581,428 637,498 603,706 554,714 263,882 141,586 195,506 147,728 101,546 117,425 146,406 492,140 491,657 508,69 544,555 458,894 480,669 974,637 842,789 618,925 650,584 543,1025 539,190 549,165 564,341 542,97 850,264 976,622 858,821 815,789 874,813 474,796 397,826 462,788 447,675 820,829 355,949 332,858 112,688 246,878 406,916 437,811 209,713 206,393 371,293 182,259 121,409 286,624 195,342 337,673 152,372 335,700 285,648 108,631 214,652 205,712 314,651 104,381 116,563 382,794 293,921 455,937 327,855 247,876 244,521 516,1019 91,603 214,244 171,326 426,167 520,100 523,125 560,310 488,271 701,323 566,535 347,871 176,781 95,542 133,519 320,462 345,455 189,677 311,824 603,784 569,815 375,984 718,876 747,817 868,833 857,609 954,723 894,744 855,870 364,948 450,973 422,762 117,621 856,875 466,875 554,368 450,261 385,156 155,301 296,169 264,215 223,303 274,759 285,567 156,731 652,914 807,909 400,950 535,213 445,735 616,202 447,148 603,112 328,166 259,261 308,354 509,138 475,981 208,361 260,323 121,419 277,488 816,349 912,307 989,568 754,343 702,772 709,589 742,752 514,836 497,830 654,855 795,625 924,739 637,680 418,261 667,476 656,325 740,333 675,936 439,325 703,204 260,184 238,303 196,294 465,221 829,208 775,392 832,730 842,567 901,518 843,405 883,506 710,600 861,507 813,485 755,541 750,128 618,447 989,435 758,142 777,182 946,654 931,684 736,422 122,514 324,244 379,326 256,277 190,297 716,112 709,571 850,295 643,115 523,101 702,108 459,89 316,234 275,295 498,161 622,95 831,281 621,98 255,188 565,192 540,203 605,249 566,140 684,907 690,654 663,901 755,833 686,740 609,806 630,65 601,718 884,628 787,518 821,549 814,441 769,654 823,649 925,439 970,597 564,521 938,507 668,532 924,493 818,181 361,221 300,147 843,718 864,268 872,333 682,321 608,335 577,98 508,108 556,87 350,128 273,203 261,190 576,88 903,275 889,266 942,497 861,535 801,406 850,681 970,480 608,267 574,223 630,494 503,449 642,471 603,458 901,503 895,691 469,135 362,197 479,346 499,158 163,297 255,223 245,335 269,363 137,297 610,156 238,247 303,318 331,152 227,259 811,301 770,353 820,422 672,446 587,410 515,489 546,193 245,289 444,166 453,309 647,330 419,134 339,208 183,267 194,434 231,750 225,854 121,724 130,491 121,699 98,585 333,937 555,991 358,957 497,982 525,975 342,952 346,469 363,947 640,948 461,978 717,986 813,361 668,401 465,305 859,511 863,433 889,519 753,520 648,426 569,400 942,498 587,398 550,333 761,224 677,223 403,115 537,87 646,515 585,533 553,942 731,924 561,415 676,477 470,451 849,510 412,443 258,591 706,895 820,288 762,228 515,200 702,113 849,218 575,240 405,109 218,226 429,98 502,549 479,133 103,402 459,130 183,253 382,121 524,535 845,487 578,608 590,654 545,445 499,946 970,678 886,744 798,465 785,537 760,536 764,744 542,327 649,411 817,351 791,620 917,737 862,708 705,708 589,289 647,271 603,293 991,528 880,382 759,614 762,495 760,366 431,447 833,442 699,823 505,190 277,346 388,115 253,279 408,135 550,463 532,497 600,162 666,136 779,205 763,195 738,487 790,540 805,558 779,550 697,129 503,89 257,213 772,201 790,247 823,348 796,226 668,205 431,306 465,222 554,864 499,649 445,688 686,812 903,773 479,712 474,984 352,899 529,882 823,789 751,818 809,864 531,836 702,769 800,760 305,659 722,744 529,768 523,764 676,864 660,716 568,486 484,748 702,700 411,733 460,711 417,695 620,555 612,736 472,381 522,412 698,932 672,892 681,769 758,845 223,844 82,537 222,801 216,801 505,662 420,688 310,547 151,444 325,298 578,145 894,409 775,292 415,250 596,683 757,922 491,963 343,783 444,911 857,616 491,752 602,895 316,916 258,899 355,805 348,748 584,764 595,482 182,779 206,845 239,846 373,853 443,925 450,937 186,388 355,579 309,695 466,754 552,841 560,897 375,903 571,997 653,944 342,906 415,920 699,853 404,852 629,835 538,771 302,689 398,613 353,615 278,551 204,545 202,604 92,496 201,611 183,443 143,727 121,715 225,866 58,450 342,187 492,262 509,942 470,794 637,889 432,282 477,407 85,538 182,803 231,816 131,692 215,785 186,751 261,886 227,821 610,969 796,910 792,850 798,737 787,919 796,714 919,793 947,623 973,630 872,867 905,395 851,408 921,785 597,779 569,724 370,863 440,821 831,866 608,758 453,859 704,669 303,835 352,500 166,615 560,995 766,786 747,780 901,812 872,674 603,323 500,907 602,863 590,1021 578,611 582,812 604,923 549,507 929,724 903,698 764,879 709,747 554,561 379,625 334,629 328,576 366,938 310,919 103,678 222,677 734,493 834,626 305,927 340,786 222,808 675,858 670,858 731,840 657,966 642,962 919,675 276,596 185,488 94,547 168,580 129,355 180,666 220,443 330,499 459,981 199,769 199,656 194,281 273,230 250,185 340,284 141,460 160,721 149,516 151,401 259,223 117,480 257,648 246,700 152,637 117,534 211,461 404,646 663,996 463,681 204,710 518,909 690,794 541,529 545,849 510,755 673,750 718,252 687,281 631,95 930,312 415,697 788,831 653,864 988,449 841,611 920,645 332,682 417,677 286,573 395,631 322,615 198,463 166,481 200,549 151,403 371,304 277,297 86,522 154,788 149,642 193,678 279,695 135,434 260,456 736,948 768,850 605,985 645,976 423,975 748,904 865,838 788,918 379,955 645,987 514,792 603,779 538,635 591,828 478,887 320,517 299,889 301,899 208,633 480,795 997,595 894,690 830,574 816,799 826,825 933,314 948,701 884,724 745,908 857,848 711,887 967,552 883,516 685,181 456,165 492,741 610,664 560,747 580,751 861,536 738,956 697,292 955,615 776,829 979,608 978,444 825,259 754,202 778,153 507,84 213,205 406,256 148,339 180,354 249,357 130,319 342,551 219,517 476,924 425,916 204,825 259,851 151,751 131,478 131,543 130,718 395,942 250,863 127,706 187,816 340,868 315,675 314,507 233,676 432,964 438,798 565,150 543,293 510,369 729,424 978,612 873,729 949,450 916,637 869,366 694,151 502,382 871,556 652,630 679,172 619,768 565,728 611,946 357,937 459,987 395,941 244,877 243,835 483,891 470,593 476,275 638,315 571,111 601,111 475,112 672,320 783,432 843,262 907,277 874,382 948,568 708,361 346,892 196,490 871,387 849,495 879,403 957,551 887,449 798,378 957,363 983,532 785,169 803,834 911,694 911,517 774,347 782,344 884,270 404,197 296,165 873,216 526,293 631,294 661,489 693,152 167,346 167,371 128,332 145,375 310,181 522,297 572,293 475,296 666,188 669,372 826,349 705,495 604,122 975,421 848,309 912,290 931,332 1007,611 499,563 376,607 919,604 766,452 774,240 448,308 535,517 488,337 816,293 950,627 931,563 882,720 823,702 859,174 241,510 254,588 296,635 355,635 162,588 109,673 314,173 712,157 707,244 580,226 741,252 463,298 672,383 513,467 623,250 549,228 495,254 846,396 793,358 748,346 751,736 739,824 993,515 919,523 1000,509 919,326 964,627 755,303 730,262 621,155 227,356 308,327 387,131 516,101 503,88 307,151 386,149 721,132 744,370 760,518 528,653 501,645 579,614 614,205 603,454 594,506 672,585 916,625 934,523 984,483 883,677 875,603 822,603 763,288 797,459 105,484 126,417 171,320 296,197 528,106 629,106 656,731 644,505 643,243 899,306 423,187 204,290 868,308 917,688 908,641 575,973 688,900 535,992 360,765 367,931 329,935 212,789 127,730 103,601 163,360 165,351 148,410 501,259 557,512 650,630 673,189 396,97 527,690 395,571 437,948 532,992 602,804 925,465 776,383 932,304 914,449 557,360 658,426 977,644 928,710 930,343 939,568 955,410 658,157 608,304 616,207 180,287 340,660 320,498 303,532 189,376 244,765 348,947 121,617 108,588 403,473 709,337 616,237 584,1003 586,829 606,403 282,509 617,378 525,351 425,297 565,399 885,281 965,449 961,451 667,112 649,110 374,166 139,316 240,243 308,161 362,136 359,135 378,276 329,182 496,100 419,205 436,170 293,350 477,129 239,341 492,190 529,501 505,952 320,929 230,871 538,979 623,835 786,798 667,524 734,651 730,503 851,661 482,255 682,696 621,703 204,719 176,730 409,632 96,439 375,133 674,164 664,876 336,882 341,512 350,631 303,886 275,804 319,843 225,748 133,733 133,570 260,619 299,609 356,422 279,738 243,654 228,575 279,564 384,780 414,759 155,749 265,889 355,954 628,968 145,754 161,766 179,793 443,750 266,505 215,850 79,588 341,821 199,721 401,912 255,771 503,940 269,804 347,461 355,726 748,655 236,716 574,700 912,822 600,480 188,807 447,882 290,907 143,748 116,450 134,476 254,439 87,586 129,455 272,491 542,341 568,494 610,633 588,522 631,513 881,787 626,970 791,665 571,596 900,743 1007,519 870,471 164,702 335,574 149,537 347,521 313,639 124,345 192,570 281,655 363,514 294,641 210,563 316,707 192,783 489,592 280,496 251,802 105,632 343,943 623,987 930,766 893,648 788,908 838,832 417,243 246,195 297,234 162,545 342,949 729,978 352,88 95,534 122,572 263,601 225,626 178,736 314,823 313,672 165,782 237,831 82,505 164,286 158,399 417,226 348,357 418,206 965,374 989,581 957,448 961,618 940,653 774,800 783,764 472,323 792,595 677,448 665,486 703,578 503,460 853,278 762,289 732,166 224,853 424,983 271,884 360,510 158,789 156,708 96,436 217,559 209,569 326,951 497,937 616,968 559,901 136,348 142,492 187,351 217,228 238,627 103,648 211,645 200,732 861,672 757,779 910,611 608,488 841,890 685,255 211,231 234,319 172,373 299,190 383,294 346,152 314,345 420,93 524,950 552,976 507,975 604,876 547,894 679,262 488,247 672,110 750,170 289,185 201,267 557,98 805,175 861,386 183,486 957,738 755,944 931,719 873,771 556,1000 647,762 99,443 655,146 788,237 719,242 828,255 1002,530 847,237 999,531 877,241 837,346 799,649 797,560 824,864 890,817" fill="none" stroke="black" />
</svg>
  