<svg viewBox="0 0 1080 1080" xmlns="http://www.w3.org/2000/svg">
  <polyline points="784,371 934,412 645,395 881,738 437,923 567,767 243,856 232,685 260,589 240,868 505,92 492,714 638,781 156,544 314,634 287,558 198,725 805,759 905,309 858,225 837,731 393,877 376,856 579,689 565,787 159,717 871,789 595,707 640,335 703,279 504,296 852,241 722,220 651,251 558,260 486,119 932,686 983,499 863,625 284,612 259,772 930,640 545,349 806,360 801,355 550,213 907,488 755,619 185,516 602,796 891,553 859,388 552,338 300,649 210,512 202,535 245,581 341,594 755,349 224,748 206,263 133,494 212,495 683,793 793,788 611,722 472,334 425,226 99,469 453,893 875,573 384,951 134,659 268,508 295,510 479,209 98,563 171,289 865,516 625,129 150,460 112,535 613,186 606,439 476,440 439,113 243,247 554,140 684,190 786,376 668,767 662,713 515,787 462,185 462,210 547,779 617,749 760,648 865,459 137,725 748,265 440,158 391,805 108,523 398,780 175,795 635,961 458,331 325,526 591,378 539,373 349,748 141,479 684,880 599,773 516,965 385,799 422,164 440,215 645,973 745,891 725,178 118,515 292,347 676,233 664,963 957,552 867,631 719,438 630,392 452,180 354,212 807,660 313,321 561,108 570,961 587,253 603,206 748,393 279,680 309,850 593,900 577,914 754,223 533,369 606,131 701,290 569,703 641,784 189,274 624,148 574,805 913,549 801,631 487,288 719,324 705,163 160,668 891,435 700,266 717,197 521,272 764,910 566,356 428,784 302,163 141,530 511,363 487,698 288,265 335,318 468,167 485,924 734,940 887,668 956,389 624,831 240,732 405,935 293,480 878,459 850,853 586,305 876,390 698,810 663,752 292,313 212,703 251,775 447,302 634,413 714,255 621,371 92,544 754,909 441,944 514,900 616,131 164,316 250,791 596,934 268,214 503,230 787,629 553,913 165,608 150,626 840,744 864,280 455,178 276,803 291,317 452,175 651,146 389,919 734,154 552,733 636,969 852,418 331,768 953,533 214,846 344,559 718,263 306,194 484,422 131,385 683,311 531,348 205,499 641,357 174,325 843,707 764,705 577,883 226,806 324,320 877,631 930,640 701,844 928,565 761,304 838,348 885,709 788,552 971,471 897,694 749,170 709,136 795,812 825,807 767,634 784,890 421,214 279,488 350,214 469,711 755,807 814,303 334,301 626,104 728,234 739,936 931,373 430,870 361,882 484,923 748,908 851,477 905,607 981,562 764,715 466,948 574,893 433,883 719,871 699,913 585,346 566,372 497,271 885,287 191,319 784,490 798,791 172,462 952,593 789,318 275,262 214,818 217,613 408,900 534,314 708,802 325,326 720,840 575,120 855,489 949,605 645,313 348,843 960,644 494,123 650,677 325,519 185,480 242,617 571,268 633,126 274,772 604,391 208,816 598,385 166,573 289,846 758,556 784,175 768,180 301,241 599,768 674,823 622,759 612,160 814,329 437,787 550,393 581,295 321,229 264,239 486,421 177,785 641,925 506,461 110,438 329,750 972,447 334,546 888,773 809,579 784,698 913,670 474,266 514,454 811,669 396,148 470,875 218,454 831,755 761,749 879,540 745,310 728,323 189,782 318,781 832,491 294,520 710,152 886,513 596,906 793,582 498,735 696,328 197,303 747,901 614,215 192,744 524,793 755,792 892,445 657,228 586,403 536,697 325,690 146,442 116,450 257,663 587,212 298,780 835,360 937,393 942,345 445,322 695,407 172,357 195,642 246,601 923,691 954,514 590,873 296,916 101,612 729,362 622,768 818,397 690,941 178,802 668,222 889,814 530,254 468,335 593,361 707,950 600,179 679,422 908,595 739,887 636,758 907,441 892,264 211,374 192,809 400,795 336,690 222,814 333,305 880,505 791,217 732,178 375,159 770,537 304,666 636,383 942,386 578,368 689,326 620,322 496,350 827,210 345,309 561,672 258,278 380,485 271,580 657,331 578,251 783,590 751,899 121,416 253,328 453,784 853,682 812,487 908,402 499,895 165,311 640,838 821,209 830,217 751,179 187,534 854,716 984,505 949,516 475,876 362,888 790,359 506,792 889,642 581,422 515,780 294,180 556,983 200,399 279,489 324,754 441,307 173,611 456,150 823,637 926,498 893,751 814,548 149,727 198,263 292,226 819,304 842,300 536,312 585,697 286,199 443,113 523,181 533,178 846,343 762,220 336,322 648,357 794,875 316,750 472,678 893,710 773,854 199,560 142,589 856,471 504,788 183,482 296,517 332,666 928,591 942,568 264,220 423,114 747,271 306,491 175,622 620,362 846,453 819,364 900,554 213,280 169,692 495,368 430,910 389,885 974,473 344,785 955,631 638,397 412,963 358,919 535,720 896,461 522,110 341,223 329,553 250,462 769,277 332,489 432,967 606,776 720,299 201,436 611,731 838,394 914,372 351,622 351,794 666,800 698,789 928,353 271,569 495,105 434,183 561,449 637,343 549,114 541,930 562,354 861,358 867,838 857,813 810,785 871,255 913,499 952,438 654,724 685,922 531,212 292,182 563,172 437,162 519,710 626,409 344,763 936,357 554,144 774,644 753,761 911,657 738,919 274,328 390,120 304,197 157,354 830,405 179,327 132,459 529,676 631,691 830,287 502,910 444,925 780,396 507,853 907,792 156,626 852,312 595,805 389,786 668,723 278,695 554,250 802,895 573,800 288,471 598,669 388,833 367,805 186,458 778,318 881,710 549,755 429,196 817,696 194,317 559,413 511,781 953,682 747,932 563,709 577,739 866,710 612,761 572,142 639,316 503,124 164,488 610,979 564,405 510,271 312,696 265,717 149,670 682,336 326,880 119,500 597,789 352,165 305,264 369,195 622,951 460,278 584,253 275,790 529,130 561,827 797,662 119,495 264,195 205,707 482,420 596,348 418,857 651,926 826,878 713,858 460,101 350,595 866,847 857,846 704,888 306,605 257,867 583,339 292,584 300,484 319,794 774,578 751,732 913,309 547,227 113,664 114,674 519,968 126,674 304,540 232,552 458,889 222,644 695,921 719,948 830,876 271,784 415,789 960,639 923,316 748,432 372,934 340,873 269,280 240,344 191,298 834,641 813,608 168,784 639,237 880,824 310,234 516,217 926,566 945,495 767,540 239,859 128,681 538,712 511,746 515,750 883,617 811,585 251,651 787,669 773,868 433,456 144,737 844,823 175,278 590,826 209,820 290,861 530,931 152,532 319,535 641,403 855,238 610,370 925,597 567,100 855,718 310,179 329,268 280,271 656,204 885,583 470,852 480,778 626,662 203,759 197,631 336,933 486,204 200,714 776,222 609,103 684,229 542,223 906,576 277,858 343,758 300,577 530,906 905,638 818,463 958,501 555,218 764,160 212,810 575,811 499,143 490,115 637,468 107,580 335,140 286,176 702,457 975,448 890,634 311,773 681,458 440,111 722,833 781,902 746,214 475,758 261,546 640,312 503,356 612,433 172,444 969,468 120,470 331,499 397,126 368,931 337,925 385,131 436,112 572,804 810,594 813,511 730,215 743,186 232,321 655,302 204,288 248,491 237,438 810,225 840,327 572,875 127,572 440,708 306,531 526,795 771,429 163,325 575,295 535,132 652,201 656,299 502,975 255,649 99,483 115,407 113,583 169,784 742,200 476,323 452,136 395,160 390,198 772,373 181,716 402,959 278,828 704,144 960,525 705,798 872,793 761,392 674,794 583,784 650,388 329,190 578,872 196,814 863,288 546,396 692,949 583,760 794,261 422,170 195,368 210,263 905,689 751,147 914,764 513,981 571,953 163,446 947,369 223,226 914,310 631,108 574,441 666,830 575,931 513,714 479,681 513,458 443,290 971,479 982,482 643,193 534,94 252,815 570,976 231,842 745,188 909,300 448,704 775,268 827,195 280,545 742,344 890,809 460,361 425,826 684,240 910,627 787,491 611,917 585,862 398,938 727,945 401,239 766,778 791,683 744,807 317,157 467,124 437,770 812,871 143,372 321,184 573,102 390,147 804,550 782,676 404,476 301,192 907,328 274,185 117,680 938,504 534,768 312,651 140,519 149,555 486,721 446,707 753,427 721,162 273,179 684,162 670,264 364,150 584,659 109,415 874,677 368,784 181,283 585,328 728,932 305,913 249,703 613,459 523,380 141,646 944,397 324,898 456,730 541,151 609,249 948,478 964,673 276,219 491,378 293,696 921,367 792,593 692,446 584,179 353,855 733,185 725,242 724,185 521,315 673,394 676,800 632,717 561,717 232,852 537,979 505,981 316,259 434,442 463,660 289,194 415,253 136,650 107,505 448,929 825,755 651,801 323,696 828,224 460,376 310,472 514,681 292,875 594,97 838,742 965,423 150,372 188,688 620,463 128,432 575,981 770,741 731,360 657,423 633,843 404,178 479,359 841,230 305,322 756,793 244,254 174,642 197,780 117,625 911,374 207,601 237,852 766,191 882,400 798,722 872,750 167,568 132,537 251,480 886,436 607,191 654,263 125,685 622,903 473,429 336,681 254,674 128,695 388,473 798,303 978,450 105,533 103,630 156,411 524,784 432,896 335,472 511,817 800,607 171,605 347,937 400,955 936,540 545,401 549,181 441,321 182,364 588,869 688,874 814,593 128,516 805,343 290,230 189,440 935,679 981,555 661,817 149,451 300,285 237,612 310,519 232,223 181,533 176,665 253,883 714,133 531,107 173,548 507,439 675,442 659,460 456,775 184,440 486,286 450,263 591,311 833,229 873,422 945,704 946,712 123,509 346,634 356,279 465,804 223,226 694,461 649,449 657,410 195,691 646,118 309,512 187,330 465,891 194,397 154,312 233,349 476,683 101,498 931,733 265,823 849,715 153,388 535,114 207,787 600,164 751,157 303,720 576,468 660,411 195,373 607,879 362,950 788,792 449,899 926,679 929,666 393,806 833,453 161,572 120,466 849,817 205,839 879,777 587,742 299,198 788,848 916,720 280,536 445,868 524,192 124,586 200,810 399,474 682,470 412,908 772,644 618,398 392,815 756,668 388,838 318,554 700,419 626,801 472,706 257,855 115,540 393,961 325,905 729,145 416,831 898,286 969,438 790,185 811,218 716,129 805,820 523,940 276,705 779,169 677,844 678,952 559,947 540,749 839,207 563,833 416,122 615,961 274,637 139,579 940,688 520,321 501,680 514,872 659,736 976,610 799,711 383,915 721,873 513,984 237,349 435,810 497,729 236,370 305,921 385,954 321,627 750,269 570,216 821,200 803,497 676,408 691,472 951,446 710,442 895,508 539,121 935,502 468,979 660,144 655,188 986,582 559,753 374,128 388,137 679,837 849,286 250,682 336,573 107,567 803,785 787,910 821,563 549,835 291,507 323,297 113,423 298,753 634,841 778,913 390,839 571,986 447,970 393,259 278,891 490,979 707,868 490,896 284,904 336,817 167,706 522,421 653,720 789,353 777,710 950,709 604,326 784,330 221,262 128,523 134,646 790,363 502,924 411,895 729,921 541,359 257,477 981,610 276,337 757,222 914,673 471,168 525,361 478,317 582,172 333,461 163,545 127,369 800,481 775,169 740,145 724,442 608,469 760,171 330,819 168,781 459,976 614,393 502,285 634,801 699,867 678,830 664,881 690,929 276,329 697,430 806,196 124,371 108,652 903,528 473,797 241,667 211,303 973,517 688,137 267,356 350,688 662,141 642,973 853,482 276,333 912,338 898,284 898,512 792,850 230,346 816,818 369,775 254,246 617,831 633,370 113,598 837,806 140,408 339,715 664,213 972,529 203,300 182,275 159,598 338,825 705,167 500,252 179,299 478,841 456,681 131,417 331,796 617,877 982,615 615,959 513,95 944,374 164,505 141,355 167,780 483,741 970,497 627,728 923,381 669,310 126,615 443,887 504,373 540,435 227,255 936,715 881,755 860,842 341,859 769,920 721,131 737,939 770,225 704,418 804,387 523,975 976,504 577,950 964,684 947,698 156,629 248,669 322,653 564,101 342,903 753,647 760,352 532,407 639,183 286,908 266,677 811,368 466,830 506,666 507,365 203,350 280,202 125,458 553,853 282,887 564,437 178,782 694,460 550,302 455,339 713,409 385,270 505,845 722,346 287,494 806,181 641,754 285,580 447,120 766,575 291,788 806,275 647,412 521,203 915,341 786,184 481,722 497,986 311,277 524,969 774,262 458,664 262,300 366,310 102,501 137,412 482,326 220,827 218,339 779,366 885,414 883,430 779,904 887,444 447,777 644,733 772,295 602,811 710,125 947,357 555,895 458,839 198,368 759,443 647,423 889,266 230,795 153,729 323,930 349,603 963,408 393,805 626,712 474,386 279,318 175,537 185,414 262,599 904,482 812,863 477,790 540,771 306,310 122,496 573,978 460,955 289,907 680,181 518,760 902,694 305,484 460,325 535,284 853,238 728,945 286,169 238,334 375,140 154,540 560,162 615,174 936,750 951,703 498,471 575,680 953,711 267,508 111,671 108,548 453,114 470,951 861,302 859,736 899,778 168,785 269,873 595,874 977,609 334,642 881,703 824,882 447,120 180,773 586,235 548,162 466,385 497,183 745,399 477,230 743,854 358,193 216,269 786,613 940,393 501,981 774,161 516,802 180,313 590,890 595,342 886,593 346,297 679,186 544,212 222,795 863,447 183,541 716,140 784,911 716,900 790,908 981,468 690,922 562,375 429,202 764,361 132,351 738,233 237,689 238,746 584,444 673,222 636,166 492,191 270,483 955,642 525,425 294,236 574,166 162,748 640,852 322,924 197,769 209,280 472,220 707,282 934,729 819,541 678,374 669,175 595,411 923,577 747,896 266,678 280,268 572,954 482,400 231,742 310,601 712,952 296,186 336,143 282,907 228,365 629,727 572,115 658,954 255,737 286,314 838,855 350,536 878,740 813,452 434,972 278,873 913,688 257,727 957,445 913,579 856,296 796,532 727,808 394,892 163,355 868,817 493,100 267,346 713,270 428,266 148,347 614,696 268,493 467,724 157,722 180,447 477,352 492,456 715,131 827,235 758,433 726,870 586,974 886,403 815,894 308,913 470,308 717,347 604,470 453,659 313,811 202,478 205,600 725,297 299,906 632,151 494,113 733,164 362,780 489,693 91,521 704,451 906,534 324,771 648,964 691,961 470,286 455,290 915,687 316,324 667,857 739,823 274,216 252,266 892,813 755,354 884,412 967,614 583,125 532,766 912,389 265,348 253,356 561,847 161,661 519,263 761,883 897,801 724,458 717,347 874,242 846,243 296,511 734,178 250,454 759,876 722,839 663,194 549,170 598,236 353,205 285,205 98,596 392,137 153,512 881,270 773,308 867,296 489,249 823,883 959,468 984,498 600,279 176,717 504,390 488,295 459,357 287,170 207,683 188,590 107,617 596,699 465,730 549,849 521,986 402,964 438,752 852,850 938,697 844,780 165,302 323,184 659,737 698,150 907,287 307,892 245,448 589,330 590,253 248,204 856,225 847,231 506,677 733,339 954,441 270,893 726,301 490,185 657,196 775,282 310,474 130,710 367,478 647,108 601,695 532,704 309,551 319,666 479,689 490,677 138,719 664,468 164,630 236,256 432,276 827,840 481,426 541,455 483,368 802,691 967,675 976,486 377,287 970,468 736,138 391,911 546,833 325,662 871,242 714,465 767,610 245,226 943,535 691,121 667,784 788,664 778,543 626,694 686,390 590,459 869,281 313,567 575,412 707,460 496,459 265,888 463,392 766,212 531,467 577,468 612,712 499,668 597,742 653,722 595,406 389,919 921,443 852,777 201,816 935,482 217,325 107,658 761,584 793,866 422,964 317,161 454,776 786,237 959,383 348,527 366,303 356,295 851,597 368,132 843,612 747,399 845,214 940,569 677,398 985,593 499,97 805,382 380,463 924,616 534,926 226,364 470,375 206,822 386,961 608,969 732,924 814,259 646,116 458,956 133,520 289,191 151,649 672,146 786,262 501,230 619,291 93,498 546,741 224,800 876,260 954,441 464,384 460,348 341,595 173,748 547,795 685,877 665,758 662,885 830,805 308,303 415,960 793,356 437,758 628,680 519,364 246,867 885,496 832,641 835,870 890,805 569,929 576,910 448,226 702,324 472,348 358,150 323,150 349,498 384,836 107,656 385,921 462,977 628,305 412,116 213,260 980,584 798,902 621,783 505,160 604,371 442,747 584,856 399,962 112,621 341,757 790,245 255,624 201,712 182,704 510,671 715,815 448,799 899,456 913,367 912,296 121,681 273,711 154,756 460,98 443,977 97,588 853,827 869,362 465,850 560,97 662,719 469,674 154,604 757,411 527,668 899,509 911,534 696,172 511,112 477,236 496,405 600,443 91,562 529,430 636,450 963,406 365,786 204,708 628,670 820,554 813,534 483,299 521,383 971,631 351,508 841,786 439,731 221,477 344,470 317,333 146,428 508,372 889,319 591,659 803,849 348,452 635,325 412,785 361,475 826,394 532,120 261,361 305,672 612,978 648,662 467,708 632,666 141,549 480,782 260,638 183,647 261,360 228,566 650,111 914,398 628,738 348,241 163,780 772,278 463,700 793,271 518,795 544,906 371,306 805,649 899,302 604,697 314,469 427,846 322,760 721,876 173,758 874,259 954,709 440,722 618,953 531,454 505,778 276,179 341,796 576,321 457,720 950,389 918,312 736,161 325,457 472,311 201,757 772,424 896,276 819,393 448,680 433,257 768,681 899,415 621,678 263,196 501,889 682,397 311,473 218,417 812,255 291,757 760,228 157,375 432,229 518,952 184,577 665,870 833,858 962,677 824,775 474,406 642,935 319,212 763,527 524,327 274,741 234,219 551,719 512,799 895,460 364,158 887,775 241,855 496,280 632,975 696,304 551,454 894,275 712,452 670,883 668,733 649,777 510,431 603,402 421,127 612,843 908,365 854,497 296,707 766,731 160,352 845,223 762,153 533,875 698,347 868,822 431,107 509,470 551,230 764,911 364,315 524,263 981,558 702,940 856,850 344,568 512,397 697,467 649,662 778,615 114,604 318,159 476,673 842,813 885,602 682,834 631,168 696,452 772,426 496,336 655,225 955,493 546,885 936,696 236,475 844,865 722,924 618,873 577,463 213,261 157,762 125,451 831,405 986,496 743,197 550,353 510,985 591,895 960,677 644,967 648,331 264,590 201,398 800,904 459,225 354,259 948,384 173,689 727,451 966,410 378,783 468,842 694,958 425,935 786,598 730,459 799,397 824,198 514,470 366,948 615,840 142,407 309,678 730,811 186,771 449,668 871,259 986,536 795,657 895,338 277,755 611,709 603,940 793,907 571,969 660,166 721,938 180,629 732,353 521,125 753,662 924,673 475,326 143,489 351,133 977,546 112,618 584,864 374,938 141,739 979,628 332,544 456,696 490,758 888,821 880,247 319,180 150,393 534,835 498,688 237,862 549,841 465,702 513,705 910,783 301,554 665,432 668,838 794,482 334,644 589,866 672,116 726,133 938,714 181,302 346,160 706,920 472,429 666,377 295,249 634,666 563,838 462,166 501,204 904,711 857,775 226,708 236,860 614,852 857,280 886,822 349,540 183,657 335,627 628,795 890,526 940,529 933,752 630,852 448,108 582,120 627,131 595,903 205,775 607,874 528,882 978,445 935,338 746,936 812,711 626,470 598,680 494,312 301,796 545,230 477,667 343,505 784,173 264,644 886,267 801,183 292,886 824,471 453,748 537,772 857,326 613,424 231,374 821,854 933,323 933,339 604,430 664,867 861,581 164,296 522,182 466,401 534,787 329,543 204,392 345,853 113,616 439,711 302,159 598,868 226,419 669,114 711,922 638,838 770,281 538,875 388,959 240,430 744,146 196,370 204,248 485,141 772,922 817,189 851,221 881,252 584,101 103,635 582,660 182,650 798,228 484,831 801,455 574,869 208,818 594,967 467,719 107,597 126,703 402,113 882,323 589,897 702,868 181,388 483,166 584,323 322,194 247,706 867,594 419,251 290,524 447,100 633,747 733,188 266,824 532,665 522,362 912,789 438,749 582,871 97,480 345,272 339,161 119,655 106,589 101,479 187,553 625,161 980,478 450,804 930,331 557,294 352,321 842,249 581,937 905,647 884,263 675,833 837,359 800,193 401,151 263,861 746,936 967,676 234,481 604,659 637,738 639,968 769,528 445,694 672,118 864,800 687,943 119,428 622,98 310,335 180,357 213,829 199,275 291,307 580,666 473,666 367,155 668,831 366,952 484,783 566,796 332,543 96,530 236,350 582,187 425,269 584,704 768,249 353,497 873,840 899,803 866,599 515,864 529,776 903,571 434,840 226,795 640,671 702,122 392,204 870,512 580,297 547,885 273,505 383,286 703,122 620,262 225,841 634,948 457,981 341,612 332,317 235,214 983,507 388,124 637,974 185,640 385,282 254,818 940,583 343,640 265,572 185,649 552,168 309,338 437,760 321,698 824,554 449,979 338,931 93,571 427,824 566,659 802,900 338,577 493,236 587,694 304,798 474,107 132,427 427,826 603,667 651,661 747,436 450,258 769,532 165,310 564,274 655,683 475,371 416,970 919,501 511,448 144,711 290,867 775,504 519,988 138,435 354,876 675,421 464,98 602,176 780,736 955,705 868,843 982,602 140,446 852,861 797,511 831,443 212,398 107,597 649,108 845,835 637,968 483,909 351,543 209,596 654,662 822,493 498,143 763,923 544,851 574,979 317,214 202,707 448,685 676,195 544,851 446,795 339,260 227,230 900,347 444,333 503,193 750,370 974,579 583,829 596,237 363,846 700,894 627,777 767,926 722,949 742,449 530,417 751,285 820,554 423,941 259,329 709,912 752,399 930,735 416,124 428,108 582,677 590,976 346,533 589,227 663,110 129,624 549,448 442,711 143,595 562,782 536,779 317,664 490,978 804,178 441,951 754,563 234,686 596,468 956,665 773,640 682,242 335,228 137,341 857,857 488,967 452,737 763,924 850,543 535,464 289,750 261,303 384,286 778,728 571,164 855,835 158,768 216,787 175,314 866,824 853,835 850,778 224,222 296,466 124,483 971,464 566,671 964,398 656,685 846,867 403,227 309,340 155,761 353,228 926,621 894,718 175,280 355,137 356,483 98,547 863,575 538,977 322,467 318,605 754,694 979,459 675,198 93,585 487,689 235,441 143,591 681,116 750,933 894,765 900,347 549,102 880,558 304,602 856,480 843,862 625,722 494,468 935,408 982,515 243,355 799,197 640,328 170,772 140,420 494,263 954,468 138,348 421,185 422,141 982,617 104,488 594,319 473,846 469,760 349,569 942,710 584,838 296,707 339,849 204,683 129,363 103,470 633,181 850,226 580,462 622,932 500,460 630,845 158,583 189,370 729,934 519,982 802,459 926,357 888,666 143,738 934,478 154,615 853,673 746,793 588,984 883,752 325,523 435,756 166,301 104,633 343,299 813,327 527,93 244,862 309,214 706,253 241,429 952,392 901,463 591,851 748,447 651,725 264,514 483,824 496,465 148,742 268,568 923,313 158,379 984,497 389,867 507,681 568,667 749,348 204,735 773,426 835,740 288,179 320,565 853,230 930,726 617,311 299,913 316,827 563,664 398,266 304,341 504,852 294,911 438,306 678,814 893,493 677,175 432,300 726,424 821,690 103,437 278,758 289,758 476,778 289,530 350,145 647,105 828,203 178,756 500,163 228,455 176,295 518,812 476,827 900,787 844,226 348,511 729,943 790,912 347,449 430,287 105,465 155,417 857,261 240,215 782,562 686,901 546,979 351,753 563,840 315,157 572,164 775,421 957,399 377,958 886,342 437,751 222,838 426,964 546,455 220,571 109,667 216,838 550,852 807,188 532,734 583,765 126,126 115,160 214,27 153,44 221,128 241,154 312,81 267,116 241,146 134,39 129,107 115,321 44,368 17,206 50,292 92,276 47,803 38,725 36,700 40,826 47,950 103,951 158,995 256,1062 188,1004 185,997 121,995 173,962 17,686 64,675 14,481 53,528 20,96 155,211 155,195 100,11 49,145 62,308 26,308 4,202 14,286 4,281 87,425 34,508 5,623 51,498 52,385 75,294 184,84 63,164 5,947 16,949 15,864 354,956 312,1040 129,1056 194,1062 456,1011 514,1021 490,1058 368,1000 458,993 327,1053 189,978 243,1008 255,975 238,986 310,1061 266,1010 201,938 231,1035 188,987 176,936 71,928 143,1047 346,1076 104,862 204,918 140,848 174,847 35,1000 70,1018 33,997 37,889 92,656 148,869 158,1062 67,1009 191,997 230,1025 302,992 184,907 113,1041 21,998 29,883 121,923 122,918 136,800 92,815 35,379 68,232 218,159 27,131 54,56 68,90 184,196 246,64 224,201 173,193 159,109 189,167 212,210 69,234 136,263 51,489 4,595 13,678 38,583 41,420 56,643 185,849 191,902 124,845 70,765 146,958 103,962 91,754 130,837 29,711 199,870 352,989 361,956 1041,1002 1027,900 1046,871 954,848 796,942 870,942 798,969 918,960 873,972 1008,1037 1042,1005 959,1021 924,1033 947,1048 684,972 840,921 872,882 1007,883 1028,920 720,989 707,1011 779,927 939,980 978,943 1052,803 999,744 960,757 1013,767 935,836 971,797 926,812 955,854 905,850 825,997 1077,1056 1067,942 995,1059 955,995 1045,1031 919,872 902,1037 930,832 923,841 906,835 978,816 968,880 923,830 1047,723 1011,797 1003,528 1015,441 975,394 1050,219 1027,174 1058,225 842,158 952,235 919,292 960,301 948,786 900,844 1031,701 1022,787 843,968 895,1070 800,1003 841,1015 887,911 879,847 914,973 989,842 982,886 995,812 860,1019 1051,1053 650,1019 969,905 1064,1030 994,963 859,1061 950,928 937,916 1007,900 1068,964 1031,1063 983,1010 1023,432 1067,305 964,292 943,201 979,197 859,179 957,25 940,63 1031,442 1052,355 1053,219 976,359 1065,392 1068,228 1038,271 1029,276 927,20 786,63 729,24 770,19 899,40 857,76 814,43 892,198 944,129 907,142 955,129 1006,196 915,183 865,136 856,118 673,50 637,49 959,103 955,31 923,186 870,130 848,52 361,172 323,544 504,661 302,647 720,451 371,244 561,851 462,718 197,830 568,978 453,934 534,667 122,500 775,916 711,814 750,935 329,462 916,314 788,849 462,832 368,274 502,334 941,537 789,712 657,734 925,582 97,478 755,586 208,254 197,479 895,810 499,393 605,462 985,512 894,658 540,169 632,157 535,661 655,932 913,674 117,402 335,671 507,875 342,453 796,295 254,347 215,834 295,503 300,219 257,864 506,230 498,427 770,510 178,784 790,389 433,285 857,222 154,537 629,100 741,367 608,461 118,691 719,796 760,367 790,595 194,458 568,333 786,821 352,216 613,878 958,668 790,296 883,689 233,664 902,804 537,833 790,535 706,147 466,851 268,356 525,119 688,321 361,284 360,284 572,234 661,850 305,828 238,867 197,505 95,589 296,344 312,925 157,669 935,736 603,957 289,909 405,810 741,289 480,797 729,424 459,124 677,385 460,456 128,700 302,287 353,136 113,644 315,583 551,360 243,432 449,704 700,826 986,524 373,912 427,284 523,271 277,735 196,413 899,705 437,976 465,837 956,395 916,343 934,331 535,951 550,91 481,660 399,265 758,148 509,93 268,258 151,318 939,715 527,246 578,98 618,690 330,452 215,242 592,102 714,134 359,137 982,571 920,303 766,379 332,538 423,470 343,480 632,142 457,686 432,826 486,397 922,347 928,427 867,254 319,179 954,424 224,367 927,328 545,961 352,945 596,462 465,378 500,451 147,576 461,358 921,601 908,384 342,526 194,677 411,793 653,967 195,346 756,393 493,385 731,344 314,250 203,259 544,715 854,231 446,775 396,190 976,617 662,720 255,783 794,475 283,183 783,702 812,828 517,468 381,849 248,211 352,183 273,205 104,450 523,877 541,667 680,193 666,287 547,470 361,886 252,247 313,152 580,97 350,479 475,288 316,793 633,663 127,695 626,908 453,362 121,566 943,525 922,502 156,413 347,504 348,598 356,139 707,148 455,685 514,881 815,685 239,868 410,914 348,722 755,146 636,102 706,139 945,731 494,668 459,850 540,225 330,228 898,711 635,104 472,142 942,448 604,156 384,273 350,285 517,953 522,99 822,861 811,740 603,96 207,659 696,119 292,910 977,612 876,811 663,895 871,252 254,200 499,95 319,812 466,397 853,763 262,31 686,68 503,39 55,19 382,22 341,98 332,84 906,15 133,16 792,83 96,326 165,813 566,1029 289,1049 748,975 30,1063 54,996 104,176 72,295 447,42 660,40 926,272 713,1 582,13 458,76 427,86 250,151 679,10 690,54 968,335 742,96 786,123 339,33 392,20 346,30 353,104 827,83 300,48 315,18 111,11 796,49 696,107 970,264 1061,708 1075,542 815,949 537,1055 753,1045 658,1053 714,1079 680,1024 211,1071 67,1068 38,1035 110,777 848,128 511,0 242,44 552,34 478,5 364,2 564,4 822,182 828,133 400,62 335,76 307,77 615,5 462,33 292,138 316,19 317,132 597,28 819,157 847,176 656,40 645,7 670,28 294,116 429,23 277,50 210,11 272,95 331,8 381,37 67,17 24,48 0,29 366,1 580,1 392,73 641,77 171,57 961,0 1055,47 1020,108 166,79 808,13 803,2 299,130 301,145 295,145 244,189 185,248 1078,523 1040,688 831,899 975,724 1037,326 1028,634 984,441 1079,887 1021,104 404,1 193,68 1040,47 1037,156 985,135 1056,314 1053,827 1068,732 1011,240 1063,37 910,12 157,74 626,52 459,29 756,4 289,62 668,42 775,2 804,0 226,123 323,137 220,3 215,86 1010,2 976,35 1031,117 1066,1004 1076,398 1072,443 1078,728 1076,563 1037,627 1066,644 1073,299 1078,656 5,762 650,1043 121,936 45,1000 143,974 376,65 421,93 395,82 267,128 370,42 333,115 428,72 767,16 516,5 79,35 17,998 23,926 615,1068 369,1053 647,1078 1055,1069 869,1077 279,1050 753,1020 352,973 746,1045 1002,168 1040,4 601,8 84,55 233,81 777,2 796,12 6,81 22,192 9,85 729,12 283,124 406,43 257,167 418,33 374,67 266,17 218,107 665,79 688,85 475,35 598,14 568,27 704,99 558,32 642,20 327,84 311,112 588,27 799,138 623,67 565,58 640,15 481,66 377,9 345,34 279,100 759,33 439,75 255,40 279,2 661,8 514,21 407,40 773,26 262,22 390,94 435,70 368,85 330,130 68,597 251,926 733,1042 457,1018 474,1022 481,1058 460,1062 705,985 460,1071 348,1050 789,989 719,1046 1027,650 1068,723 1077,709 1073,258 1028,567 886,193 720,125 414,11 708,107 366,8 1050,16 976,333 43,646 170,227 485,1008 738,1004 510,1003 926,1064 359,1069 1035,1071 826,542 312,800 887,777 284,790 622,878 210,235 641,834 665,187 225,414 876,244 951,718 285,316 248,734 957,678 614,846 824,567 393,213 566,714 129,373 546,853 759,623 248,339 180,322 888,463 232,856 350,554 437,926 316,224 717,345 539,467 433,742 200,299 271,348 607,469 518,400 152,500 628,118 477,239 988,544 896,353 97,467 949,370 460,358 577,321 620,312 689,877 636,299 540,661 911,756 263,723 629,685 340,554 743,266 231,330 104,528 971,649 535,448 336,794 198,259 615,979 858,330 333,547 97,501 461,366 386,282 342,590 982,550 537,661 891,576 634,932 833,527 516,750 437,306 807,189 568,389 323,597 195,811 386,773 765,920 797,902 514,327 441,728 466,849 680,192 534,830 398,267 176,443 916,300 530,435 156,763 574,320 337,813 818,580 541,264 774,327 685,434 502,672 376,906 190,553 315,175 282,232 640,659 919,376 372,774 651,695 802,694 500,455 472,828 808,895 456,666 235,317 95,602 951,705 454,364 253,735 118,653 217,784 739,941 895,713 626,839 153,668 891,724 605,222 944,346 886,267 973,616 879,443 441,705 217,388 218,238 439,132 903,551 364,286 971,660 768,875 459,956 674,222 789,830 726,429 163,437 195,611 620,845 582,693 262,198 376,305 571,672 788,166 775,750 791,503 120,587 884,750 287,173 95,485 825,686 552,853 531,683 599,980 506,881 870,636 342,578 720,173 577,986 92,520 231,302 342,499 330,852 963,687 699,860 849,303 815,436 985,596 533,794 285,351 770,819 623,933 788,711 236,422 215,296 294,914 195,487 387,961 551,767 797,650 632,708 621,152 601,468 177,447 870,824 456,829 214,232 330,930 626,842 151,556 169,739 173,416 235,415 208,770 768,351 469,831 174,731 670,367 498,163 299,918 974,637 279,903 970,415 732,302 984,599 674,960 240,229 775,551 896,780 609,796 655,156 720,938 293,852 642,432 587,326 940,449 929,447 610,153 439,759 902,786 818,576 970,466 746,406 263,189 722,423 217,229 633,748 611,710 652,670 231,219 185,810 258,687 543,837 259,319 975,617 887,272 525,339 924,667 827,724 884,393 286,279 886,255 504,903 582,747 515,347 781,564 209,842 635,103 195,765 393,773 345,466 348,451 509,94 598,132 554,293 637,851 744,447 326,324 214,240 918,309 863,600 805,453 749,437 101,458 162,398 912,576 628,904 785,615 462,845 254,881 847,707 925,759 611,132 153,329 861,248 170,764 534,779 787,490 449,441 388,277 677,292 416,906 915,417 783,169 189,293 505,447 156,715 630,844 838,269 445,696 843,213 229,270 919,300 447,683 971,444 199,264 559,463 179,800 758,916 761,915 348,294 785,815 663,718 270,187 103,641 592,835 981,537 831,200 279,298 545,975 704,833 309,464 703,898 974,648 488,219 498,469 621,737 454,360 138,626 780,219 425,469 461,798 432,830 214,833 835,730 728,132 452,935 177,802 293,905 179,400 482,785 588,953 440,712 115,627 247,873 477,293 624,113 444,978 340,315 607,873 187,346 456,110 775,650 983,578 128,715 624,152 765,152 916,300 349,527 427,793 544,955 970,480 234,818 495,881 481,893 941,450 441,298 551,450 91,554 806,696 585,243 251,634 171,775 861,844 733,256 200,419 261,288 938,357 248,215 525,146 850,288 260,288 559,764 154,310 808,550 931,711 530,187 107,582 582,464 699,429 482,198 380,122 443,326 752,663 237,863 327,462 763,519 919,780 943,422 798,774 578,354 333,453 888,257 344,468 538,832 443,221 438,742 273,557 297,466 657,446 479,442 101,615 571,429 150,534 875,348 167,733 596,323 458,718 921,770 140,348 907,740 669,758 861,509 853,590 482,828 571,174 277,897 551,763 184,695 653,659 257,210 720,174 479,198 937,340 194,763 196,328 96,572 616,832 949,370 613,825 386,280 527,123 440,325 799,361 332,465 714,223 623,776 751,372 712,162 648,954 527,256 321,225 426,257 410,857 300,188 450,107 273,548 372,124 320,566 619,785 660,912 603,671 972,632 211,769 526,367 558,980 656,971 384,845 474,697 463,225 231,233 130,436 515,126 337,537 915,779 543,254 966,400 875,449 578,468 925,763 974,638 295,223 543,378 920,321 606,947 452,749 632,753 835,399 650,712 799,702 669,868 807,634 341,508 738,218 972,633 287,347 362,291 383,258 388,885 213,831 474,664 591,471 487,95 648,126 785,330 410,115 656,687 776,921 922,677 883,399 650,266 856,221 657,665 341,609 699,877 547,694 602,893 738,850 630,881 613,847 914,315 522,93 831,820 316,160 745,830 406,175 630,142 638,394 497,660 925,309 262,822 587,465 218,235 693,472 372,953 266,678 257,817 900,284 203,757 527,982 637,882 648,240 342,452 928,445 795,908 356,481 466,713 652,759 868,237 947,502 229,404 975,625 965,615 874,425 441,207 743,844 344,168 540,170 188,419 512,279 283,209 216,236 774,922 435,798 809,202 328,281 561,849 352,675 814,559 486,454 256,364 392,479 823,884 321,583 828,207 710,825 743,201 249,219 540,987 460,928 958,421 183,371 275,356 325,714 838,875 405,869 965,659 474,230 213,237 619,825 445,909 785,580 205,325 626,164 454,100 185,273 132,428 379,277 720,424 777,419 376,164 834,403 444,810 215,236 228,705 525,470 643,470 261,189 775,262 788,229 984,516 687,319 465,658 793,543 910,410 767,895 690,958 100,620 819,316 271,622 928,323 974,644 786,252 973,632 926,365 933,754 867,844 461,853 124,628 159,521 273,891 102,492 592,932 778,651 265,189 219,232 909,586 637,663 604,277 393,801 525,98 959,580 707,424 526,985 423,112 842,640 253,342 679,159 816,463 842,211 263,209 901,541 504,693 471,355 473,389 754,449 395,458 626,239 562,357 716,952 827,232 232,715 876,248 123,577 216,242 525,662 375,126 547,385 870,650 764,921 285,293 346,664 464,874 863,577 324,222 868,551 690,470 828,199 253,359 555,837 197,492 869,587 291,694 906,795 120,576 179,668 769,760 210,844 107,591 756,711 707,123 734,439 766,927 694,182 775,712 860,843 592,984 570,983 444,210 234,412 534,708 478,217 805,372 130,720 881,798 871,822 485,981 586,861 293,468 315,202 575,472 406,454 620,470 754,202 99,624 101,446 350,312 972,450 333,729 281,224 371,278 126,436 609,902 821,628 608,399 614,694 769,287 763,517 648,461 707,315 828,883 852,769 979,464 758,552 289,663 847,680 516,133 707,945 759,636 365,127 496,460 620,310 305,160 167,506 649,710 497,111 538,101 620,294 808,332 754,592 903,569 491,312 776,159 793,169 311,492 834,445 603,981 591,938 483,894 435,211 830,763 683,334 769,645 706,139 455,878 325,668 872,835 139,344 495,278 611,969 428,863 834,529 761,313 253,270 597,434 991,427 988,378 994,384 957,765 953,801 138,786 25,414 225,223 894,863 1025,259 984,231 754,101 1050,61 1071,56 75,906 49,819 283,927 990,728 9,542 21,277 97,60 97,742 25,39 71,500 69,111 8,501 12,534 1017,932 16,475 1055,1075 53,450 916,285 1004,388 996,751 999,7 988,139 113,232 868,118 1029,273 16,646 989,225 946,225 13,795 12,744 1007,1026 44,20 37,441 984,221 998,272 966,34 806,958 293,1056 62,149 89,200 10,3 2,802 66,844 976,889 201,148 169,221 30,137 63,95 214,1062 134,107 57,43 154,235 73,521 246,1021 50,286 19,86 30,944 172,1042 177,131 984,375 863,9 964,1021 136,541 60,915 752,36 756,1048 1078,191 1070,10 1068,119 957,185 688,1009 995,602 995,508 65,544 142,259 82,687 392,36 992,754 1063,1021 935,86 1039,175 91,636 781,1039 780,506 779,925 33,499 0,837 30,583 90,955 20,794 345,1007 112,950 84,1065 71,837 45,155 22,157 1070,636 34,37 910,1032 994,261 895,181 1003,628 925,790 357,1014 0,998 130,996 36,663 7,313 2,19 1,706 7,79 862,56 949,261 20,200 157,904 34,16 105,112 265,1073 455,1078 117,769 974,289 957,219 853,1047 994,389 761,579 1003,407 873,92 1044,582 850,120 956,22 975,25 8,1037 831,885 729,994 319,938 923,221 781,107 12,417 13,394 27,397 579,1019 953,1041 973,207 992,426 962,265 110,806 33,241 1052,980 1042,965 1069,1014 959,386 960,337 672,98 901,806 765,934 218,939 214,898 110,832 127,196 1014,501 981,51 130,124 1022,297 641,984 113,933 113,43 102,651 162,193 91,129 34,701 26,879 28,876 137,905 281,941 97,93 61,614 122,716 1001,473 461,851 1,685 278,166 1008,339 783,952 51,778 29,802 71,473 37,599 37,621 43,671 72,418 85,122 54,399 183,251 20,611 15,715 41,143 71,613 971,250 800,55 760,986 97,760 1012,396 1055,826 1062,945 994,779 991,782 446,1008 286,976 88,726 408,975 165,907 322,1023 480,994 305,11 1066,14 1054,805 194,862 227,907 984,31 1075,187 893,147 941,182 1013,430 746,37 934,42 513,1050 85,739 978,955 931,1018 892,85 1031,750 1055,796 1024,669 932,175 683,440 979,1015 195,34 71,639 1079,794 335,130 1073,938 1005,745 491,472" fill="none" stroke="black" />
</svg>
  